<mxfile host="app.diagrams.net" agent="Mozilla/5.0 (Windows NT 10.0; Win64; x64) AppleWebKit/537.36 (KHTML, like Gecko) Chrome/134.0.0.0 Safari/537.36 Edg/134.0.0.0" version="26.2.4">
  <diagram id="C5RBs43oDa-KdzZeNtuy" name="Page-1">
    <mxGraphModel dx="1207" dy="807" grid="1" gridSize="10" guides="1" tooltips="1" connect="1" arrows="1" fold="1" page="1" pageScale="1" pageWidth="827" pageHeight="1169" math="0" shadow="0">
      <root>
        <mxCell id="WIyWlLk6GJQsqaUBKTNV-0" />
        <mxCell id="WIyWlLk6GJQsqaUBKTNV-1" parent="WIyWlLk6GJQsqaUBKTNV-0" />
        <mxCell id="zZ1f7SHBCaGza4mmgxuI-2" value="" style="edgeStyle=orthogonalEdgeStyle;rounded=0;orthogonalLoop=1;jettySize=auto;html=1;" edge="1" parent="WIyWlLk6GJQsqaUBKTNV-1" source="zZ1f7SHBCaGza4mmgxuI-0" target="zZ1f7SHBCaGza4mmgxuI-1">
          <mxGeometry relative="1" as="geometry" />
        </mxCell>
        <mxCell id="zZ1f7SHBCaGza4mmgxuI-0" value="开始" style="strokeWidth=2;html=1;shape=mxgraph.flowchart.start_1;whiteSpace=wrap;fillColor=#ffe6cc;strokeColor=#d79b00;" vertex="1" parent="WIyWlLk6GJQsqaUBKTNV-1">
          <mxGeometry x="370" y="110" width="100" height="60" as="geometry" />
        </mxCell>
        <mxCell id="zZ1f7SHBCaGza4mmgxuI-4" value="展示全部" style="edgeStyle=orthogonalEdgeStyle;rounded=0;orthogonalLoop=1;jettySize=auto;html=1;entryX=0.5;entryY=0;entryDx=0;entryDy=0;exitX=0;exitY=0.5;exitDx=0;exitDy=0;" edge="1" parent="WIyWlLk6GJQsqaUBKTNV-1" source="zZ1f7SHBCaGza4mmgxuI-1" target="zZ1f7SHBCaGza4mmgxuI-7">
          <mxGeometry relative="1" as="geometry">
            <mxPoint x="270" y="320" as="targetPoint" />
          </mxGeometry>
        </mxCell>
        <mxCell id="zZ1f7SHBCaGza4mmgxuI-6" value="某个按钮" style="edgeStyle=orthogonalEdgeStyle;rounded=0;orthogonalLoop=1;jettySize=auto;html=1;" edge="1" parent="WIyWlLk6GJQsqaUBKTNV-1" source="zZ1f7SHBCaGza4mmgxuI-1" target="zZ1f7SHBCaGza4mmgxuI-5">
          <mxGeometry relative="1" as="geometry" />
        </mxCell>
        <mxCell id="zZ1f7SHBCaGza4mmgxuI-1" value="点击展示全部&lt;div&gt;or菜单某个按钮&lt;/div&gt;" style="rhombus;whiteSpace=wrap;html=1;strokeWidth=2;fillColor=#dae8fc;strokeColor=#6c8ebf;" vertex="1" parent="WIyWlLk6GJQsqaUBKTNV-1">
          <mxGeometry x="341.25" y="200" width="157.5" height="80" as="geometry" />
        </mxCell>
        <mxCell id="zZ1f7SHBCaGza4mmgxuI-13" style="edgeStyle=orthogonalEdgeStyle;rounded=0;orthogonalLoop=1;jettySize=auto;html=1;" edge="1" parent="WIyWlLk6GJQsqaUBKTNV-1" source="zZ1f7SHBCaGza4mmgxuI-5" target="zZ1f7SHBCaGza4mmgxuI-11">
          <mxGeometry relative="1" as="geometry" />
        </mxCell>
        <mxCell id="zZ1f7SHBCaGza4mmgxuI-5" value="跳转到对应链接" style="whiteSpace=wrap;html=1;strokeWidth=2;fillColor=#f5f5f5;fontColor=#333333;strokeColor=#666666;" vertex="1" parent="WIyWlLk6GJQsqaUBKTNV-1">
          <mxGeometry x="510" y="420" width="120" height="60" as="geometry" />
        </mxCell>
        <mxCell id="zZ1f7SHBCaGza4mmgxuI-9" value="否" style="edgeStyle=orthogonalEdgeStyle;rounded=0;orthogonalLoop=1;jettySize=auto;html=1;" edge="1" parent="WIyWlLk6GJQsqaUBKTNV-1" source="zZ1f7SHBCaGza4mmgxuI-7" target="zZ1f7SHBCaGza4mmgxuI-8">
          <mxGeometry relative="1" as="geometry" />
        </mxCell>
        <mxCell id="zZ1f7SHBCaGza4mmgxuI-7" value="判断是否已全部展开" style="rhombus;whiteSpace=wrap;html=1;strokeWidth=2;fillColor=#dae8fc;strokeColor=#6c8ebf;" vertex="1" parent="WIyWlLk6GJQsqaUBKTNV-1">
          <mxGeometry x="200" y="310" width="157.5" height="80" as="geometry" />
        </mxCell>
        <mxCell id="zZ1f7SHBCaGza4mmgxuI-10" style="edgeStyle=orthogonalEdgeStyle;rounded=0;orthogonalLoop=1;jettySize=auto;html=1;entryX=0;entryY=0.5;entryDx=0;entryDy=0;exitX=0;exitY=0.5;exitDx=0;exitDy=0;" edge="1" parent="WIyWlLk6GJQsqaUBKTNV-1" source="zZ1f7SHBCaGza4mmgxuI-8" target="zZ1f7SHBCaGza4mmgxuI-7">
          <mxGeometry relative="1" as="geometry">
            <mxPoint x="160" y="440" as="targetPoint" />
          </mxGeometry>
        </mxCell>
        <mxCell id="zZ1f7SHBCaGza4mmgxuI-8" value="展开下一级菜单的内容" style="rounded=0;whiteSpace=wrap;html=1;fillColor=#f5f5f5;fontColor=#333333;strokeColor=#666666;" vertex="1" parent="WIyWlLk6GJQsqaUBKTNV-1">
          <mxGeometry x="213.25" y="450" width="131" height="60" as="geometry" />
        </mxCell>
        <mxCell id="zZ1f7SHBCaGza4mmgxuI-11" value="结束" style="strokeWidth=2;html=1;shape=mxgraph.flowchart.start_1;whiteSpace=wrap;fillColor=#ffe6cc;strokeColor=#d79b00;" vertex="1" parent="WIyWlLk6GJQsqaUBKTNV-1">
          <mxGeometry x="364" y="555" width="100" height="60" as="geometry" />
        </mxCell>
        <mxCell id="zZ1f7SHBCaGza4mmgxuI-12" style="edgeStyle=orthogonalEdgeStyle;rounded=0;orthogonalLoop=1;jettySize=auto;html=1;entryX=0.5;entryY=0;entryDx=0;entryDy=0;entryPerimeter=0;" edge="1" parent="WIyWlLk6GJQsqaUBKTNV-1" source="zZ1f7SHBCaGza4mmgxuI-7" target="zZ1f7SHBCaGza4mmgxuI-11">
          <mxGeometry relative="1" as="geometry" />
        </mxCell>
      </root>
    </mxGraphModel>
  </diagram>
</mxfile>
